# xmcd
#
# Track frame offsets:
#	150
#	12941
#	29460
#	45862
#	61749
#	78791
#	92773
#	108825
#	122918
#	136621
#	154577
#	170335
#	185685
#	203811
#	220465
#	238839
#	260655
#	276811
#	292631
#	303665
#	332259
#
# Disc length: 4436 seconds
#
# Revision: 1
# Processed by: cddbd v1.5.2PL0 Copyright (c) Steve Scherf et al.
# Submitted via: audiograbber 1.83.01
#
DISCID=17115215
DTITLE=Toby Keith - Top Tunes vol. 26
DYEAR=1998
DGENRE=
TTITLE0=Toby Keith - A Little Less Talk
TTITLE1=Toby Keith - A Woman's Touch
TTITLE2=Toby Keith - Country Comes To Town
TTITLE3=Toby Keith - Courtesy of the Red, White, and Blue
TTITLE4=Toby Keith - Does That Blue Moon Ever Shine
TTITLE5=Toby Keith - He Ain't Worth Missing
TTITLE6=Toby Keith - How Do You Like Me Now
TTITLE7=Toby Keith - I Wanna Talk About Me
TTITLE8=Toby Keith - I'm Just Talkin About Tonight
TTITLE9=Toby Keith - I'm So Happy
TTITLE10=Toby Keith - Me Too
TTITLE11=Toby Keith - My List
TTITLE12=Toby Keith - Pull My Chain
TTITLE13=Toby Keith - Should've Been A Cowboy
TTITLE14=Toby Keith - We Were In Love
TTITLE15=Toby Keith - Who's That Man
TTITLE16=Toby Keith - Who's Your Daddy
TTITLE17=Toby Keith - Wish I Didn't Know You
TTITLE18=Toby Keith - You Ain't Much Fun
TTITLE19=Toby Keith - You Shouldn't Kiss Me Like That
TTITLE20=xx - Data Track
EXTD=
EXTT0=
EXTT1=
EXTT2=
EXTT3=
EXTT4=
EXTT5=
EXTT6=
EXTT7=
EXTT8=
EXTT9=
EXTT10=
EXTT11=
EXTT12=
EXTT13=
EXTT14=
EXTT15=
EXTT16=
EXTT17=
EXTT18=
EXTT19=
EXTT20=
PLAYORDER=
